<?xml version="1.0" encoding="UTF-8"?>
<svg id="Camada_1" xmlns="http://www.w3.org/2000/svg" version="1.1" viewBox="0 0 184.25 99.21">
  <!-- Generator: Adobe Illustrator 30.3.0, SVG Export Plug-In . SVG Version: 2.1.3 Build 182)  -->
  <defs>
    <style>
      .st0, .st1 {
        fill: #42a6dc;
      }

      .st0, .st2 {
        fill-rule: evenodd;
      }

      .st2, .st3 {
        fill: #df187a;
      }
    </style>
  </defs>
  <path class="st0" d="M83.6,45.67c.5-.42.96-.88,1.41-1.34,0-2.34.16-3.75,2.48-3.46,1.14-.11,1.77-.14,2.74-.72-.1-.34-.02-.71.22-1.07,3.27-3.48,6.96-4.41,11.45-3.73-3.29-.16-9.54,1.01-10.97,4.44-.03.29-.05.54-.07.83-.47.13-.98.25-1.46.42-2.75.35-4.36-.38-4,3.16-.59.49-1.21.98-1.8,1.47"/>
  <path class="st0" d="M92.74,42.54c-.29.39-.61.74-.93,1.09-.25.02-.55.08-.8.1.12.09.07.17.23.23.52.3.45,1.55,2.42,1.97.06.26.12.56.18.81.32-2.69-2.81-.45-1.1-4.2"/>
  <path class="st0" d="M112.65,10.05c-2.42,2.26-4.9,4.38-7.03,6.67.3-.1.59-.07.87.08.87.62.83.57,1.83.12-.75,1.36-.92,1.47-2.2.81-.15.74-.37,1.35-.7,1.78,0-.04.01-.12.01-.17.03-.33-.24-.61-.53-.63-.34.01-.57.29-.56.66-.03.33.24.61.53.59h.04c-.44.3-1.03.25-1.74-.23-2.02,2.96-3.24,6.37-2.79,10.8-2.05,2.92-6.05.73-7.05-.28.04-.5.09-1,.13-1.49,1.35,2.29,5.15,4.26,6.28.93-1.32-9.74,6.96-15,12.89-19.63"/>
  <path class="st0" d="M104.87,21.13c-.53,2.76-.97,7.28-3.15,8.72,1.34-2.85,1.89-5.86,3.15-8.72"/>
  <path class="st0" d="M96.31,32.31c-.35.68-.49,1.34-.13,2-2.42,1.84-4.6.94-7.07-.03.68,1.78,1.71,2.45,3.71,2.58,1.59-.45,2.82-1.13,3.62-2.11-.06-.76-.07-1.55.45-2.22-.2-.06-.37-.12-.57-.22"/>
  <path class="st0" d="M74.17,23.76c2.39,5.73,5.26,9.29,10.23,12.65-6.11-3.3-8.21-5.61-10.23-12.65"/>
  <path class="st0" d="M95.1,18.39c-2.14.52-3.36.59-5.52.4-.41-.12-.82-.24-1.18-.4.64.31,1.28.61,1.97.93.18.39.35.78.53,1.18,1.85,1.84,3.51.98,3.66-1.19.19-.28.35-.6.54-.91M93.7,19.57c.33.03.6.3.61.68-.03.33-.27.65-.6.62-.29.02-.56-.26-.57-.64-.01-.34.27-.65.56-.66Z"/>
  <path class="st0" d="M62.9,57.5l6.76-2.21c6.92-1.11,14.32.88,20.86-2.19,5.63-2.64,10.05-7.28,12.43-13.01,1.05-2.46,1.66-5.09,2.1-7.72l.46-4.35h.13s-.58,8.58-.58,8.58c-1.59,7.68-6.64,14.65-13.83,17.95-5.62,2.56-11.92,1.34-17.83,1.45l-7.16.59-3.34.92Z"/>
  <path class="st0" d="M84.23,50.41c-.9-1.71-1.32-1.2-1.04-3.94-.4-.2-.36-.16-.68.15-.28.77-.46.5-.19,1.28-.55.54-1.24,1.77-.1,2.12.86-.72,1.26-.1,2.02.39"/>
  <path class="st0" d="M115.33,2.42c-1.08,7.06-17.82,12.83-21,9-6.86-8.13-21.07,2.67-24.74-1.75,4.9,3.23,17.68-8.41,23.58-.7,4.24,5.52,19.95.07,22.16-6.55"/>
  <path class="st1" d="M28.07,86.34l-2.22.02v1.51s2.13.02,2.13.02v.88s-2.13.02-2.13.02v3.01s-.97,0-.97,0v-6.32s3.19-.01,3.19-.01v.88ZM31.88,87.8l-.02,4.01-.92-.04v-3.97s.93,0,.93,0ZM31.41,85.54c.17.01.33.07.45.16.11.14.19.27.17.43-.01.17-.07.29-.16.44-.13.11-.26.14-.43.17-.17-.01-.33-.07-.44-.21-.12-.09-.19-.27-.17-.43.01-.12.07-.29.16-.4.14-.11.27-.19.43-.17ZM37.34,88.49l-.79.39c-.1-.26-.26-.36-.43-.37-.08,0-.17.03-.22.11-.05.04-.09.12-.1.2,0,.08.03.13.11.22.08.05.24.15.44.25.36.16.6.26.76.4.32.19.5.5.47.88,0,.38-.15.7-.42.97-.27.27-.58.41-.99.37-.67.03-1.14-.31-1.42-.96l.78-.35c.11.18.22.31.3.4.08.05.2.1.37.12.13-.03.26-.06.35-.14.09-.08.1-.2.11-.32.01-.12-.06-.22-.14-.31-.08-.05-.36-.2-.8-.4-.28-.15-.48-.29-.59-.47-.11-.13-.18-.35-.16-.56,0-.38.1-.7.37-.89.23-.23.53-.33.87-.34.25.02.5.09.65.18.2.14.35.32.49.63ZM41.34,87.79l-.02,4.02h-.92s.02-4.01.02-4.01h.92ZM40.86,85.53c.17.01.29.07.4.16.11.13.19.27.21.44-.01.17-.07.33-.21.44-.09.12-.27.19-.43.17-.17-.01-.29-.07-.41-.16-.11-.13-.19-.27-.17-.43-.03-.17.07-.33.16-.44.14-.11.26-.15.43-.17ZM46.41,87.69c.67-.02,1.19.23,1.61.73.34.41.51.84.51,1.38.03.63-.23,1.15-.68,1.57-.36.34-.88.55-1.47.54-.63-.01-1.19-.23-1.61-.73-.34-.41-.51-.88-.5-1.43,0-.58.22-1.11.68-1.53.41-.34.88-.55,1.47-.54ZM46.42,88.53c-.42,0-.72.15-.96.42-.15.24-.26.52-.24.86,0,.42.1.72.33.95.23.23.52.34.85.33.42,0,.72-.15.92-.42.19-.23.3-.52.28-.85,0-.42-.15-.72-.38-.95-.19-.23-.47-.33-.81-.32ZM52.47,88.64l.02,3.14h-.92s-.02-3.14-.02-3.14h-.38s0-.87,0-.87l.37.03v-1.46h.96v1.47s.71-.02.71-.02v.88s-.74-.02-.74-.02ZM59.51,90.01h-2.89c.02.21.09.38.16.51.18.39.5.55.91.58.21-.02.43-.09.56-.2.13-.07.32-.31.51-.58l.76.44c-.15.28-.34.51-.52.67-.36.34-.84.47-1.34.51-.67-.02-1.19-.27-1.57-.72-.26-.36-.43-.83-.42-1.42-.01-.34.05-.62.16-.91.07-.29.21-.52.39-.68.36-.34.8-.52,1.39-.55.42,0,.82.16,1.18.4.47.33.71.94.73,1.74,0,.04-.01.12-.02.21ZM58.57,89.26c-.07-.17-.1-.3-.22-.4-.15-.22-.43-.33-.72-.36-.25.02-.43.09-.6.2-.18.15-.28.31-.34.56h1.88ZM62.46,87.8h.96s-.03.33-.03.33c.18-.15.32-.31.45-.34.13-.07.3-.1.51-.12.21.02.49.09.73.23l-.41.88c-.2-.14-.36-.2-.53-.21-.25.02-.43.09-.57.28-.1.2-.17.49-.16.87l-.02,2.09h-.92s-.02-4.02-.02-4.02ZM70.5,87.79h.92s-.02,4.01-.02,4.01h-.92s0-.42,0-.42c-.18.19-.41.34-.58.41-.17.07-.39.13-.64.11-.59,0-1.07-.22-1.45-.67-.3-.36-.47-.88-.46-1.46.01-.63.19-1.16.6-1.54.37-.39.8-.56,1.3-.56.25.02.46.04.66.14.16.1.36.24.59.43v-.46ZM69.39,88.53c-.33-.03-.6.11-.79.39-.23.23-.3.52-.33.85,0,.42.14.77.41,1.04.19.18.43.29.73.27.34-.01.64-.15.87-.43.18-.19.26-.52.24-.86,0-.42-.1-.72-.33-.95-.23-.23-.47-.34-.81-.32ZM75.48,94h-.92s0-6.19,0-6.19h.92s0,.42,0,.42c.37-.34.76-.56,1.22-.56.59,0,1.07.26,1.44.71.3.36.47.84.46,1.46.03.63-.18,1.15-.59,1.54-.37.34-.8.56-1.26.56-.5,0-.9-.21-1.29-.57l.02,2.64ZM76.54,88.53c-.33-.03-.64.11-.87.38-.19.23-.26.52-.25.9,0,.42.1.72.34.95.23.23.47.33.81.32.34-.01.6-.12.79-.39.23-.23.3-.52.33-.85,0-.42-.14-.77-.37-1.04-.19-.18-.43-.29-.77-.28ZM82.46,87.79l.03,4.02h-.92s-.02-4.02-.02-4.02h.92ZM82.03,85.53c.17.02.29.07.4.16.11.14.19.27.17.43.03.17-.07.33-.16.45-.14.11-.27.19-.43.17-.17-.01-.29-.07-.4-.2-.12-.09-.19-.23-.22-.4.01-.17.07-.33.21-.44.09-.12.27-.19.43-.17ZM88.57,87.78h.92s-.02,4.01-.02,4.01h-.92s0-.42,0-.42c-.18.19-.41.34-.58.41-.18.11-.39.13-.64.11-.59.03-1.07-.22-1.45-.67-.3-.36-.47-.84-.46-1.46.01-.63.18-1.15.59-1.54.37-.39.8-.56,1.3-.56.25.02.46.04.66.14.2.1.4.24.59.43v-.46ZM87.5,88.52c-.38,0-.64.11-.83.39-.19.24-.3.52-.28.85-.04.41.1.76.37,1.04.19.18.43.29.73.27.37.03.64-.11.87-.38.19-.23.25-.52.25-.9.04-.42-.1-.72-.33-.95-.19-.23-.47-.33-.77-.32ZM100.92,89.24v2.55h-.98v-6.32s1.1-.03,1.1-.03c.58.01,1,.05,1.24.15.45.12.8.45,1.01.88.15.26.2.56.22.86,0,.54-.17.99-.58,1.37-.36.35-.88.51-1.6.53h-.42ZM100.91,88.32l.33.03c.46,0,.8-.1,1.03-.25.18-.19.29-.48.32-.77-.01-.34-.12-.6-.35-.78-.24-.15-.57-.22-1.03-.22l-.29.02v1.97ZM109.72,90.01h-2.89c.02.21.05.38.12.51.22.4.49.59.91.58.25-.02.43-.09.6-.16.13-.11.32-.35.47-.63l.8.45c-.19.27-.38.51-.52.67-.41.34-.84.47-1.38.51-.63-.01-1.15-.27-1.53-.72-.3-.36-.43-.83-.46-1.42.03-.33.06-.62.16-.91.11-.28.25-.52.43-.67.37-.34.8-.52,1.35-.55.46.04.87.16,1.22.4.47.38.67.94.68,1.73,0,.04-.01.12.02.21ZM108.74,89.25c-.03-.17-.1-.3-.17-.39-.19-.23-.43-.33-.76-.36-.21.02-.43.09-.56.2-.18.15-.28.31-.34.56h1.84ZM115.61,84.83l.96.04-.02,6.9h-.92s0-.42,0-.42c-.37.39-.76.56-1.22.56-.58-.01-1.07-.22-1.45-.67-.3-.4-.47-.88-.46-1.46-.02-.67.19-1.2.6-1.58.36-.34.8-.52,1.26-.52.5,0,.91.16,1.29.57l-.04-3.43ZM114.53,88.5c-.33.01-.6.16-.79.39-.23.27-.3.56-.33.89,0,.42.14.77.37,1,.19.18.43.29.73.31.38,0,.68-.15.91-.42.15-.24.26-.52.24-.86,0-.42-.1-.76-.33-.99-.23-.19-.48-.29-.81-.32ZM120.62,87.78l-.02,4.01h-.92s.02-4.01.02-4.01h.92ZM120.15,85.52c.17.01.29.07.4.2.16.1.19.23.22.4-.01.17-.07.33-.2.44-.09.12-.27.19-.43.17-.17-.01-.29-.07-.41-.16-.11-.14-.19-.27-.17-.43-.03-.17.07-.29.16-.4.14-.11.27-.19.44-.21ZM126.69,87.81h.92s.03,3.97.03,3.97h-.92s0-.42,0-.42c-.23.19-.41.34-.63.45-.17.07-.38.09-.6.12-.58-.01-1.07-.22-1.45-.67-.34-.41-.47-.88-.5-1.47.02-.67.23-1.19.6-1.58.36-.34.8-.52,1.3-.51.25-.02.46.04.66.1.2.1.4.24.59.47v-.46ZM125.62,88.51c-.34.01-.64.11-.83.39-.19.24-.3.56-.29.9,0,.42.1.76.37,1,.19.18.43.29.73.31.38,0,.68-.15.87-.43.19-.23.25-.52.28-.85,0-.42-.14-.77-.37-.99-.19-.18-.48-.29-.77-.32ZM127.11,85.84l-1.5,1.33-.52-.3,1.14-1.49.88.45ZM131.72,88.67l-.02,3.14h-.92s.02-3.13.02-3.13l-.42-.04v-.84s.41,0,.41,0v-1.46s.92,0,.92,0v1.47s.71.02.71.02v.84s-.7.02-.7.02ZM135.02,87.79h.92s0,.37,0,.37c.18-.19.32-.31.45-.38.13-.07.3-.1.47-.08.25-.02.5.04.78.23l-.45.84c-.15-.14-.32-.2-.48-.21-.25.02-.47.13-.57.29-.14.2-.21.48-.2.86l.03,2.1h-.96s.02-4.02.02-4.02ZM141.04,87.77l.02,4.02h-.92s-.02-4.02-.02-4.02h.92ZM140.61,85.55c.17-.03.29.02.4.16.12.09.19.27.17.43.03.17-.03.29-.16.4-.14.11-.27.19-.43.17-.17.03-.29-.02-.41-.16-.11-.13-.19-.27-.17-.43-.03-.17.03-.29.16-.4.14-.11.27-.19.43-.17ZM147.3,87.98l.02,1.21c-.23-.27-.42-.46-.58-.55-.16-.1-.37-.12-.57-.13-.38,0-.68.15-.92.42-.19.24-.3.52-.28.85-.03.37.11.68.33.95.19.23.47.33.85.37.21-.02.42-.05.6-.16.13-.11.36-.26.55-.54l.02,1.21c-.39.17-.74.31-1.11.28-.67.03-1.24-.19-1.66-.65-.34-.41-.55-.88-.54-1.43,0-.38.11-.74.3-1.06.15-.32.43-.59.74-.77.31-.22.7-.32,1.16-.32.38,0,.74.11,1.1.31ZM153.13,87.78h.92s-.02,4.01-.02,4.01h-.92s0-.42,0-.42c-.18.19-.41.34-.58.41-.18.11-.39.13-.64.11-.59.03-1.07-.22-1.45-.67-.3-.36-.47-.84-.46-1.46.01-.63.18-1.15.59-1.54.37-.39.8-.56,1.3-.56.25.02.46.04.66.14.16.1.36.24.59.43v-.46ZM152.06,88.52c-.38,0-.64.11-.83.39-.19.23-.3.52-.33.85,0,.46.14.77.41,1.04.19.18.43.29.73.27.37.03.64-.11.87-.38.19-.23.25-.52.25-.9.04-.42-.1-.72-.33-.95-.19-.23-.47-.33-.77-.32Z"/>
  <path class="st3" d="M6.09,55.96h1.46s6.68,21.26,6.68,21.26c.11.18.18.31.25.44.12.09.2.14.32.15.13-.03.22-.07.31-.14.09-.12.19-.28.25-.44l6.76-21.29h1.42s-6.71,21.17-6.71,21.17c-.24.77-.53,1.33-.81,1.64-.32.31-.71.48-1.21.48-.46,0-.86-.16-1.17-.48-.27-.27-.55-.84-.82-1.66l-6.73-21.13ZM25.21,78.85v-15.44s1.35,0,1.35,0v15.44s-1.35,0-1.35,0ZM24.94,59.03c-.02-.25.09-.49.27-.65.18-.19.4-.3.65-.28.29-.02.54.09.73.27.19.18.26.4.28.65-.02.29-.08.49-.31.68-.18.19-.4.3-.7.32-.25-.02-.45-.12-.64-.31-.19-.18-.3-.4-.27-.69ZM28.78,63.39h1.42s5.04,13.58,5.04,13.58c.06.26.17.43.25.52.07.13.19.18.28.19.12.01.26-.06.35-.18.09-.12.19-.32.25-.52l5-13.58h1.46s-5.3,14.23-5.3,14.23c-.22.57-.46.96-.69,1.2-.27.23-.62.36-1.04.37-.42,0-.74-.11-1.01-.38-.27-.23-.49-.63-.69-1.19l-5.32-14.23ZM45.04,78.87l.02-15.48h1.34s-.02,15.47-.02,15.47h-1.34ZM44.77,59.05c-.02-.29.08-.49.27-.69.18-.19.4-.26.69-.27.25.02.49.08.69.27.19.18.3.4.27.69.02.25-.09.49-.27.69-.18.19-.44.3-.69.27-.29.02-.49-.09-.69-.27-.19-.23-.25-.44-.27-.69ZM63.79,78.88l-.02-6.95c0-2.34-.55-4.19-1.73-5.55-1.14-1.35-2.71-2.08-4.63-2.08-1.84,0-3.36.67-4.56,1.94-1.24,1.31-1.85,2.93-1.85,4.86,0,1.97.61,3.57,1.79,4.84,1.23,1.28,2.76,1.96,4.6,1.95,1.05-.03,1.99-.25,2.86-.67.92-.42,1.72-1.06,2.51-1.96l-.03,1.8c-.77.69-1.57,1.2-2.48,1.54-.91.34-1.85.55-2.85.54-1.13-.02-2.16-.23-3.13-.61-.97-.42-1.8-.99-2.52-1.77-.69-.73-1.24-1.61-1.62-2.57-.37-1-.58-2.02-.57-3.06,0-2.34.75-4.24,2.22-5.79,1.47-1.5,3.29-2.26,5.55-2.28,1.38.04,2.65.36,3.84,1.01,1.15.69,2.12,1.61,2.85,2.84.41.62.68,1.36.81,2.16.18.81.26,1.78.29,2.91v6.86s-1.35,0-1.35,0ZM70.23,78.85h-1.3s.01-8.73.01-8.73c-.02-2.18.55-3.84,1.7-5.12,1.16-1.28,2.68-1.9,4.56-1.9,1.92,0,3.46.64,4.56,1.91,1.14,1.27,1.75,2.96,1.73,5.09v8.74s-1.31.01-1.31.01v-9.16c.02-1.59-.45-2.89-1.37-3.89-.92-1-2.13-1.48-3.59-1.49-1.46,0-2.68.52-3.6,1.48-.92,1.01-1.37,2.31-1.39,3.9v9.16ZM100.05,71.34c-.12,2.29-.91,4.15-2.37,5.61-1.47,1.46-3.25,2.19-5.42,2.2-1.05,0-2.03-.22-2.96-.59-.97-.42-1.8-.99-2.53-1.73-.77-.78-1.32-1.62-1.74-2.62-.38-.95-.58-2.02-.57-3.06.01-1.09.19-2.12.56-3.09.42-.97,1-1.88,1.74-2.65.73-.73,1.62-1.32,2.53-1.7.96-.42,1.98-.58,3.07-.61,1.42,0,2.65.36,3.76,1,1.12.64,2.08,1.6,2.84,2.88l-10.8,7.21-.62-1.06,9.56-6.4c-.6-.81-1.26-1.41-2.1-1.82-.8-.4-1.7-.61-2.67-.61-1.8-.03-3.36.63-4.6,1.94-1.25,1.36-1.89,2.93-1.89,4.86,0,1.88.66,3.49,1.88,4.81,1.22,1.32,2.76,1.96,4.55,1.99,1.76-.01,3.24-.64,4.39-1.83,1.19-1.19,1.87-2.77,2-4.72h1.38ZM111.94,55.98h1.42s.03,15.94.03,15.94c-.03,1.84.47,3.22,1.39,4.18.92.96,2.3,1.46,4.06,1.44l4.48.02-.03,1.29h-3.97c-2.47.02-4.34-.6-5.53-1.79-1.23-1.2-1.83-3.05-1.87-5.48l.03-15.6ZM139.22,71.33c-.12,2.29-.91,4.15-2.37,5.61-1.47,1.46-3.25,2.18-5.42,2.2-1.05,0-2.03-.18-2.96-.59-.93-.37-1.8-.95-2.53-1.73-.77-.78-1.32-1.62-1.74-2.62-.38-.95-.58-2.02-.57-3.06.01-1.09.19-2.12.56-3.09.42-.97,1-1.84,1.74-2.65.73-.73,1.62-1.32,2.53-1.7.96-.42,1.97-.58,3.07-.61,1.42,0,2.65.36,3.76,1,1.11.64,2.08,1.6,2.84,2.89l-10.8,7.21-.62-1.06,9.56-6.4c-.56-.8-1.26-1.41-2.1-1.82-.8-.4-1.7-.61-2.67-.61-1.8.01-3.36.63-4.61,1.98-1.24,1.31-1.89,2.93-1.89,4.81,0,1.88.65,3.53,1.88,4.81,1.22,1.32,2.75,2,4.55,1.99,1.76-.01,3.23-.6,4.39-1.83,1.19-1.19,1.87-2.77,2-4.72h1.38ZM142.37,78.85l-.03-15.44h1.34s.03,15.43.03,15.43h-1.34ZM142.05,59.03c.02-.25.08-.49.27-.65.18-.19.4-.3.69-.27.25-.02.49.08.69.27.19.18.3.4.28.65.02.29-.09.49-.27.69-.18.19-.44.3-.7.32-.25-.02-.49-.13-.68-.31-.19-.19-.26-.4-.27-.69ZM147.74,59.02h1.34s0,4.38,0,4.38l5.48-.02v1.3s-5.47-.02-5.47-.02v8.66c0,1.47.35,2.58,1.09,3.28.74.65,1.88,1,3.47,1.01h.92s.02,1.25.02,1.25l-.71-.02c-2.05-.01-3.56-.44-4.61-1.36-1.01-.88-1.52-2.23-1.53-4.03v-14.43ZM172.1,71.32c-.12,2.29-.91,4.19-2.38,5.65-1.46,1.42-3.29,2.18-5.42,2.16-1.05,0-2.03-.18-2.96-.59-.97-.38-1.8-.95-2.53-1.73-.77-.78-1.32-1.62-1.74-2.62-.38-.95-.58-1.98-.57-3.06-.03-1.09.18-2.12.56-3.09.42-.97,1-1.84,1.73-2.61.74-.77,1.58-1.33,2.54-1.74.95-.38,1.97-.58,3.06-.57,1.38,0,2.65.32,3.77.96,1.11.64,2.04,1.6,2.8,2.88l-10.76,7.22-.62-1.06,9.56-6.4c-.6-.76-1.3-1.41-2.1-1.82-.8-.4-1.7-.61-2.67-.61-1.84,0-3.36.67-4.61,1.98-1.24,1.31-1.89,2.93-1.89,4.81,0,1.92.61,3.53,1.88,4.85,1.23,1.28,2.76,1.96,4.52,1.94,1.8-.01,3.23-.6,4.43-1.83,1.19-1.19,1.83-2.77,1.96-4.72h1.42Z"/>
  <path class="st2" d="M175.79,56.46c2.05-.03,3.71,1.62,3.7,3.67,0,2.01-1.66,3.66-3.67,3.65-2.05.03-3.71-1.62-3.7-3.67,0-2.01,1.66-3.66,3.67-3.65M175.8,56.79c1.84,0,3.34,1.47,3.35,3.31,0,1.88-1.51,3.34-3.35,3.35-1.84,0-3.34-1.51-3.35-3.35,0-1.84,1.5-3.3,3.34-3.31Z"/>
  <path class="st3" d="M174.43,61.9l-.02-3.6h1.59c.33.04.58.06.74.12.16.06.28.19.39.33.11.18.14.35.16.56-.02.25-.08.45-.27.65-.14.16-.4.26-.74.31.12.09.2.14.28.19.16.14.27.28.37.49l.63.98h-.59s-.48-.76-.48-.76c-.15-.22-.26-.4-.33-.49-.07-.13-.19-.18-.23-.23-.08-.05-.16-.1-.24-.11-.04,0-.12-.01-.25-.02h-.54s-.01,1.58-.01,1.58h-.46ZM174.9,59.89h1c.21.02.38,0,.5-.04.13-.07.22-.15.31-.22.05-.12.06-.2.07-.33.02-.17-.06-.3-.17-.43-.12-.1-.32-.15-.57-.14l-1.17-.02.02,1.17Z"/>
</svg>